#N canvas 184 121 450 300 12;
#X msg 100 56 Hello World;
#X obj 219 210 print;
#X obj 258 136 +;
#X msg 224 85 12;
#X msg 301 90 3;
#X obj 280 34 bng 15 250 50 0 empty empty empty 17 7 0 10 #fcfcfc #000000
#000000;
#X connect 2 0 1 0;
#X connect 3 0 2 0;
#X connect 4 0 2 1;
#X connect 5 0 3 0;
