#N canvas 303 101 644 594 12;
#X msg 212 473 connect localhost 7000;
#X floatatom 381 554 5 0 0 0 - - - 0;
#X msg 251 42 dog ferret cat;
#X obj 49 375 print packet;
#X obj 204 349 oscparse;
#X obj 204 373 print reassembled;
#X obj 367 349 list prepend send;
#X obj 398 407 list trim;
#X obj 461 444 print trim;
#X obj 504 413 print send;
#X obj 237 280 oscformat /cat;
#X obj 395 519 netsend -u -b;
#X obj 67 98 metro 1000;
#X obj 82 19 bng 15 250 50 0 empty empty empty 17 7 0 10 #fcfcfc #000000
#000000;
#X msg 416 159 4 5 weasel 6 7 rat;
#X msg 53 166 set dog ferret cat;
#X msg 237 157 set cat;
#X obj 212 437 loadbang;
#X connect 0 0 11 0;
#X connect 4 0 5 0;
#X connect 6 0 7 0;
#X connect 6 0 9 0;
#X connect 7 0 8 0;
#X connect 7 0 11 0;
#X connect 10 0 3 0;
#X connect 10 0 4 0;
#X connect 10 0 6 0;
#X connect 11 0 1 0;
#X connect 13 0 12 0;
#X connect 14 0 10 0;
#X connect 15 0 10 0;
#X connect 16 0 10 0;
#X connect 17 0 0 0;
